<?xml version="1.0" encoding="UTF-8"?>
<svg width="124px" height="124px" viewBox="0 0 124 124" version="1.1" xmlns="http://www.w3.org/2000/svg" xmlns:xlink="http://www.w3.org/1999/xlink">
    <defs>
        <polyline id="path-1" points="0 0 0 0 124 0 124 124"></polyline>
    </defs>
    <g id="Page-1" stroke="none" stroke-width="1" fill="none" fill-rule="evenodd">
        <g id="Artboard" transform="translate(-436.000000, -164.000000)">
            <g id="BETA" transform="translate(436.000000, 164.000000)">
                <mask id="mask-2" fill="white">
                    <use xlink:href="#path-1"></use>
                </mask>
                <use id="Mask" fill="#03AFEF" transform="translate(62.000000, 62.000000) rotate(-360.000000) translate(-62.000000, -62.000000) " xlink:href="#path-1"></use>
                <path d="M58.4994264,47.4194264 C59.1694297,47.4194264 59.7169242,47.3344272 60.1419264,47.1644264 C60.5669285,46.9944255 60.8994252,46.7744277 61.1394264,46.5044264 C61.3794276,46.234425 61.5444259,45.9294281 61.6344264,45.5894264 C61.7244268,45.2494247 61.7694264,44.9044281 61.7694264,44.5544264 C61.7694264,44.1544244 61.7169269,43.794428 61.6119264,43.4744264 C61.5069258,43.1544248 61.3269276,42.8844275 61.0719264,42.6644264 C60.8169251,42.4444253 60.4794285,42.274427 60.0594264,42.1544264 C59.6394243,42.0344258 59.1094296,41.9744264 58.4694264,41.9744264 L54.9294264,41.9744264 L54.9294264,47.4194264 L58.4994264,47.4194264 Z M54.9294264,33.1844264 L54.9294264,38.5844264 L57.5694264,38.5844264 C58.1294292,38.5844264 58.6344241,38.5444268 59.0844264,38.4644264 C59.5344286,38.384426 59.9169248,38.2444274 60.2319264,38.0444264 C60.5469279,37.8444254 60.7869255,37.5694281 60.9519264,37.2194264 C61.1169272,36.8694246 61.1994264,36.429429 61.1994264,35.8994264 C61.1994264,35.3794238 61.134427,34.9469281 61.0044264,34.6019264 C60.8744257,34.2569246 60.6744277,33.9794274 60.4044264,33.7694264 C60.134425,33.5594253 59.7919284,33.4094268 59.3769264,33.3194264 C58.9619243,33.2294259 58.4694292,33.1844264 57.8994264,33.1844264 L54.9294264,33.1844264 Z M57.8994264,29.3894264 C59.4094339,29.3894264 60.6944211,29.529425 61.7544264,29.8094264 C62.8144317,30.0894278 63.679423,30.4844238 64.3494264,30.9944264 C65.0194297,31.5044289 65.5069248,32.1244227 65.8119264,32.8544264 C66.1169279,33.58443 66.2694264,34.3994219 66.2694264,35.2994264 C66.2694264,35.7894288 66.1994271,36.2619241 66.0594264,36.7169264 C65.9194257,37.1719286 65.6994279,37.5969244 65.3994264,37.9919264 C65.0994249,38.3869283 64.7144287,38.7494247 64.2444264,39.0794264 C63.774424,39.409428 63.2094297,39.6944252 62.5494264,39.9344264 C63.9894336,40.2844281 65.0544229,40.8494225 65.7444264,41.6294264 C66.4344298,42.4094303 66.7794264,43.4194202 66.7794264,44.6594264 C66.7794264,45.589431 66.5994282,46.4544224 66.2394264,47.2544264 C65.8794246,48.0544304 65.3519298,48.7519234 64.6569264,49.3469264 C63.9619229,49.9419293 63.1044315,50.4069247 62.0844264,50.7419264 C61.0644213,51.076928 59.8994329,51.2444264 58.5894264,51.2444264 L49.8594264,51.2444264 L49.8594264,29.3894264 L57.8994264,29.3894264 Z M75.0444264,33.2894264 L75.0444264,38.3894264 L81.9144264,38.3894264 L81.9144264,42.1394264 L75.0444264,42.1394264 L75.0444264,47.3444264 L84.0144264,47.3444264 L84.0144264,51.2444264 L69.9444264,51.2444264 L69.9444264,29.3894264 L84.0144264,29.3894264 L84.0144264,33.2894264 L75.0444264,33.2894264 Z M102.839426,33.4094264 L96.6894264,33.4094264 L96.6894264,51.2444264 L91.6194264,51.2444264 L91.6194264,33.4094264 L85.4694264,33.4094264 L85.4694264,29.3894264 L102.839426,29.3894264 L102.839426,33.4094264 Z M114.824426,42.8894264 L112.799426,36.9044264 C112.649426,36.5244245 112.489427,36.0769289 112.319426,35.5619264 C112.149426,35.0469238 111.979427,34.4894294 111.809426,33.8894264 C111.659426,34.4994294 111.499427,35.0644238 111.329426,35.5844264 C111.159426,36.104429 110.999427,36.5544245 110.849426,36.9344264 L108.839426,42.8894264 L114.824426,42.8894264 Z M122.879426,51.2444264 L118.949426,51.2444264 C118.509424,51.2444264 118.154428,51.1419274 117.884426,50.9369264 C117.614425,50.7319253 117.409427,50.469428 117.269426,50.1494264 L115.979426,46.3394264 L107.669426,46.3394264 L106.379426,50.1494264 C106.269426,50.4294278 106.071928,50.6819252 105.786926,50.9069264 C105.501925,51.1319275 105.149428,51.2444264 104.729426,51.2444264 L100.769426,51.2444264 L109.229426,29.3894264 L114.419426,29.3894264 L122.879426,51.2444264 Z" fill="#FFFFFF" mask="url(#mask-2)" transform="translate(86.369426, 40.316926) rotate(-315.000000) translate(-86.369426, -40.316926) "></path>
            </g>
        </g>
    </g>
</svg>