<?xml version="1.0" encoding="UTF-8"?>
<svg version="1.1" viewBox="0 0 90.688 104.58" xmlns="http://www.w3.org/2000/svg" xmlns:cc="http://creativecommons.org/ns#" xmlns:dc="http://purl.org/dc/elements/1.1/" xmlns:rdf="http://www.w3.org/1999/02/22-rdf-syntax-ns#">
 <metadata>
  <rdf:RDF>
   <cc:Work rdf:about="">
    <dc:format>image/svg+xml</dc:format>
    <dc:type rdf:resource="http://purl.org/dc/dcmitype/StillImage"/>
    <dc:title/>
   </cc:Work>
  </rdf:RDF>
 </metadata>
 <g transform="matrix(.035278 0 0 -.035278 0 104.58)" fill-rule="evenodd">
  <path d="m1285.3 2534.2 917.7-522.1 367.64 212.27-1282 740.14-1288.4-740.14 367.64-212.27 917.37 522.1" fill="#52b0e7"/>
  <path d="m6.707 2220.4 370.97-214.16v-1059.7l907.66-524.19v-420.43l-1285.3 738.21 6.707 1480.3" fill="#3c76c3"/>
  <path d="m929.73 1687.8 357.32-206.29v-420.38l-185.3 107.08-171.95 99.28-0.067 420.31" fill="#2e9d4d"/>
  <path d="m1651 1691.7-363.93-210.09v-420.4l357.25 206.4 6.68 424.09" fill="#256f44"/>
  <path d="m2564 2220.4-370.97-214.16v-1048l-443.79-267.87-463.87-268v-420.43l3.34-1.9297 1276.5 736.94-1.18 1483.5" fill="#2e3b69"/>
  <path d="m1287 1481.6-357.32 206.29v2.52l357.32 206.32 4.41 2.55 180.86-104.44 178.66-103.13-363.93-210.11" fill="#9fd62b"/>
  <path d="m475.34 1435.4 357.32-206.3v-420.38l-185.3 107.09-171.95 99.279-0.066 420.31" fill="#3c76c3"/>
  <path d="m1190 1435.4-357.32-206.3v-420.38l357.28 206.39 0.04 420.29" fill="#2e3b69"/>
  <path d="m832.66 1229.1-357.29 206.27 180.86 106.95 176.44 101.91 357.34-208.86-357.34-206.27" fill="#52b0e7"/>
  <path d="m1394.9 1424.6 357.32-206.3v-420.38l-185.3 107.09-171.95 99.268-0.07 420.32" fill="#3c76c3"/>
  <path d="m2109.6 1424.6-357.32-206.3v-420.38l357.27 206.38 0.05 420.3" fill="#2e3b69"/>
  <path d="m1752.2 1218.3-357.3 206.28v2.52l180.86 104.43 176.44 101.9 357.34-208.85-357.34-206.28" fill="#52b0e7"/>
  <path d="m944.16 1159.5 357.31-206.3v-420.37l-185.29 107.08-171.96 99.281-0.063 420.31" fill="#3c76c3"/>
  <path d="m1658.8 1159.5-357.32-206.3v-420.37l357.28 206.38 0.04 420.29" fill="#2e3b69"/>
  <path d="m1301.5 953.26-357.29 206.28v2.52l180.85 104.43 176.44 101.91 357.34-208.86-357.34-206.28" fill="#52b0e7"/>
  <path d="m929.73 2249.9 357.32-206.3v-420.38l-185.3 107.09-171.95 99.27-0.067 420.32" fill="#3c76c3"/>
  <path d="m1651 2253.7-363.93-210.09v-420.4l357.25 206.41 6.68 424.08" fill="#2e3b69"/>
  <path d="m1287 2043.6-357.32 206.3v2.52l357.32 206.32 4.41 2.54 180.86-104.43 178.66-103.14-363.93-210.11" fill="#52b0e7"/>
  <path d="m475.34 1997.4 357.32-206.29v-420.38l-185.3 107.08-171.95 99.28-0.066 420.31" fill="#3c76c3"/>
  <path d="m1190 1997.4-357.32-206.29v-420.38l357.28 206.38 0.04 420.29" fill="#2e3b69"/>
  <path d="m832.66 1791.1-357.29 206.27 180.86 106.95 176.44 101.92 357.34-208.87-357.34-206.27" fill="#52b0e7"/>
  <path d="m1394.9 1986.6 357.32-206.3v-420.38l-185.3 107.09-171.95 99.28-0.07 420.31" fill="#3c76c3"/>
  <path d="m2109.6 1986.6-357.32-206.3v-420.38l357.27 206.39 0.05 420.29" fill="#2e3b69"/>
  <path d="m1752.2 1780.3-357.3 206.28v2.52l180.86 104.43 176.44 101.91 357.34-208.86-357.34-206.28" fill="#52b0e7"/>
  <path d="m944.16 1721.5 357.31-206.29v-420.38l-185.29 107.08-171.96 99.28-0.063 420.31" fill="#3c76c3"/>
  <path d="m1658.8 1721.5-357.32-206.29v-420.38l357.28 206.39 0.04 420.28" fill="#2e3b69"/>
  <path d="m1301.5 1515.3-357.29 206.27v2.52l180.85 104.44 176.44 101.91 357.34-208.87-357.34-206.27" fill="#52b0e7"/>
 </g>
</svg>
