<?xml version="1.0" encoding="UTF-8" standalone="no"?>
<svg width="118px" height="118px" viewBox="0 0 118 118" version="1.1" xmlns="http://www.w3.org/2000/svg" xmlns:xlink="http://www.w3.org/1999/xlink" xmlns:sketch="http://www.bohemiancoding.com/sketch/ns">
    <!-- Generator: Sketch 3.1.1 (8761) - http://www.bohemiancoding.com/sketch -->
    <title>Group</title>
    <desc>Created with Sketch.</desc>
    <defs></defs>
    <g id="Page-1" stroke="none" stroke-width="1" fill="none" fill-rule="evenodd" sketch:type="MSPage">
        <g id="Artboard-1" sketch:type="MSArtboardGroup" transform="translate(-42.000000, -47.000000)">
            <g id="Group" sketch:type="MSLayerGroup" transform="translate(42.000000, 48.000000)">
                <path d="M10.258,61.859 C5.863,61.892 2.14,59.273 0.768,55.186 C0.715,55.027 0.669,54.872 0.625,54.72 C-0.871,49.484 2.03,44.008 7.23,42.255 L90.613,14.32 C91.627,14.029 92.648,13.881 93.659,13.874 C98.17,13.838 101.996,16.515 103.403,20.69 L103.527,21.093 C105.086,26.545 101.211,31.413 96.568,32.973 C96.564,32.975 95.721,33.262 13.646,61.282 C12.535,61.658 11.396,61.849 10.258,61.859" id="Fill-9" fill="#70CADB" sketch:type="MSShapeGroup"></path>
                <path d="M24.157,102.867 C19.729,102.899 15.992,100.317 14.636,96.289 C14.586,96.134 14.537,95.979 14.494,95.825 C12.977,90.527 15.874,84.994 21.09,83.237 L104.478,55.045 C105.554,54.686 106.667,54.5 107.785,54.491 C112.227,54.457 116.129,57.17 117.506,61.245 L117.634,61.67 C118.438,64.484 117.963,67.651 116.363,70.148 C115.168,72.007 111.404,73.642 111.404,73.642 L27.698,102.261 C26.533,102.651 25.343,102.856 24.157,102.867" id="Fill-16" fill="#E01765" sketch:type="MSShapeGroup"></path>
                <path d="M93.572,103.043 C89.125,103.079 85.186,100.272 83.77,96.067 L55.94,13.402 L55.801,12.937 C54.294,7.667 57.192,2.168 62.391,0.415 C63.43,0.065 64.506,-0.118 65.588,-0.127 C67.196,-0.139 68.752,0.223 70.217,0.947 C72.667,2.167 74.5,4.267 75.375,6.86 L103.203,89.518 L103.284,89.783 C104.846,95.256 101.953,100.759 96.756,102.509 C95.725,102.854 94.653,103.035 93.572,103.043" id="Fill-17" fill="#E8A723" sketch:type="MSShapeGroup"></path>
                <path d="M52.205,116.969 C47.758,117.003 43.816,114.197 42.398,109.986 L14.575,27.323 C14.527,27.17 14.48,27.02 14.435,26.863 C12.931,21.593 15.821,16.093 21.018,14.34 C22.053,13.995 23.124,13.814 24.205,13.805 C28.652,13.771 32.592,16.577 34.01,20.784 L61.834,103.449 C61.886,103.595 61.933,103.753 61.975,103.906 C63.482,109.179 60.59,114.682 55.386,116.435 C54.353,116.78 53.284,116.96 52.205,116.969" id="Fill-18" fill="#3EB890" sketch:type="MSShapeGroup"></path>
                <path d="M79.852,84.429 L99.257,77.794 L92.914,58.955 L73.486,65.522 L79.852,84.429" id="Fill-19" fill="#CC1F27" sketch:type="MSShapeGroup"></path>
                <path d="M38.549,98.551 L57.952,91.917 L51.562,72.935 L32.138,79.502 L38.549,98.551" id="Fill-20" fill="#361238" sketch:type="MSShapeGroup"></path>
                <path d="M66.037,43.396 C74.762,40.418 80.994,38.29 85.444,36.771 L79.176,18.151 L59.732,24.665 L66.037,43.396" id="Fill-21" fill="#65863A" sketch:type="MSShapeGroup"></path>
                <path d="M24.73,57.498 C31.891,55.054 38.334,52.854 44.137,50.873 L37.791,32.017 L18.348,38.53 L24.73,57.498" id="Fill-22" fill="#1A937D" sketch:type="MSShapeGroup"></path>
            </g>
        </g>
    </g>
</svg>